# xmcd
#
# Track frame offsets:
# 150
# 18840
# 43674
# 83236
# 111289
# 142340
# 176120
# 194576
# 217872
# 252067
# 274736
#
# Disc length: 4098 seconds
#
#
# Revision: 1
# Processed by: cddbd v1.4PL0 Copyright (c) Steve Scherf et al.
# Submitted via: FreeRIP 2.51 
#
DISCID=9f10000b
DTITLE=DJ Michael Floyd - The Journey: Volume 1
DYEAR=1998
DGENRE=Club-House
TTITLE0=Ultra Nate-The Cure(Full Intention Radio Mix)
TTITLE1=High Jinx-California Dreaming
TTITLE2=Robin S.-Midnight(Michael's Album VS. 12 Inch Re-Edit)
TTITLE3=East 57th Street-Saturday(ACE Remix)
TTITLE4=Gems For Jem-Lift Me Up
TTITLE5=Diddy-Gimme Love(Diddy's Full Vocal Mix)
TTITLE6=Syndrome-Heyo(Na Na Ae)
TTITLE7=Linda Eder-Something To Believe In
TTITLE8=Gloria Estefan-Heaven Is What I Feel(Victor Calderone Mix)
TTITLE9=Vic Moore-Breathe
TTITLE10=Lighthouse Family-High
EXTD=
EXTT0=
EXTT1=
EXTT2=
EXTT3=
EXTT4=
EXTT5=
EXTT6=
EXTT7=
EXTT8=
EXTT9=
EXTT10=
PLAYORDER=
